<svg id="Layer_1" data-name="Layer 1" xmlns="http://www.w3.org/2000/svg" xmlns:xlink="http://www.w3.org/1999/xlink" viewBox="0 0 79.08008 111.53003">
  <defs>
    <style>
      .cls-1, .cls-3 {
        opacity: 0.85;
      }

      .cls-2 {
        fill: #57bdec;
      }

      .cls-3 {
        fill: url(#linear-gradient);
      }
    </style>
    <linearGradient id="linear-gradient" x1="410.21478" y1="338.95571" x2="285.36372" y2="393.08337" gradientUnits="userSpaceOnUse">
      <stop offset="0" stop-color="#fff"/>
      <stop offset="1" stop-color="#06adb4" stop-opacity="0.85"/>
    </linearGradient>
  </defs>
  <g>
    <g class="cls-1">
      <path class="cls-2" d="M343.34009,438.425a7.73563,7.73563,0,0,0-5.79-2.27H336.96a9.10372,9.10372,0,0,1-6.8-2.8,9.452,9.452,0,0,1-2.75-6.87v-55.3a30.47627,30.47627,0,1,0-60.94995.01v10.58h16.1001v-10.6a14.2717,14.2717,0,0,1,14.31982-14.34,14.59091,14.59091,0,0,1,13.43018,8.99v-.05c12.78979,12.79,1,32.45,1,32.45v28.27A24.98594,24.98594,0,0,0,318.7,444.805a24.71463,24.71463,0,0,0,18.26,7.46h.59009a7.74669,7.74669,0,0,0,7.99-7.99A8.031,8.031,0,0,0,343.34009,438.425Z" transform="translate(-266.45996 -340.73499)"/>
      <path class="cls-2" d="M282.56006,381.775v36.24a7.78908,7.78908,0,0,1-2.26,5.8,8.05377,8.05377,0,0,1-5.8501,2.21,7.58622,7.58622,0,0,1-7.99-8.01v-36.24Z" transform="translate(-266.45996 -340.73499)"/>
    </g>
    <path class="cls-3" d="M311.31006,398.225a30.50846,30.50846,0,0,1-14.43018,3.57995,7.68227,7.68227,0,0,1-5.78979-2.27,8.0132,8.0132,0,0,1-2.21021-5.84,7.5716,7.5716,0,0,1,8-7.99,13.8754,13.8754,0,0,0,10.19019-4.25,14.15587,14.15587,0,0,0,3.5498-5.69,14.71168,14.71168,0,0,0,.69019-4.56,14.22593,14.22593,0,0,0-1-5.38v-.05C323.09985,378.565,311.31006,398.225,311.31006,398.225Z" transform="translate(-266.45996 -340.73499)"/>
  </g>
</svg>
