<?xml version="1.0" encoding="UTF-8" standalone="no"?>
<!-- Created with Inkscape (http://www.inkscape.org/) -->

<svg
   width="210mm"
   height="297mm"
   viewBox="0 0 210 297"
   version="1.1"
   id="svg1"
   inkscape:version="1.3 (0e150ed6c4, 2023-07-21)"
   sodipodi:docname="logo.svg"
   xmlns:inkscape="http://www.inkscape.org/namespaces/inkscape"
   xmlns:sodipodi="http://sodipodi.sourceforge.net/DTD/sodipodi-0.dtd"
   xmlns="http://www.w3.org/2000/svg"
   xmlns:svg="http://www.w3.org/2000/svg">
  <sodipodi:namedview
     id="namedview1"
     pagecolor="#ffffff"
     bordercolor="#999999"
     borderopacity="1"
     inkscape:showpageshadow="0"
     inkscape:pageopacity="0"
     inkscape:pagecheckerboard="0"
     inkscape:deskcolor="#d1d1d1"
     inkscape:document-units="mm"
     inkscape:zoom="22.150168"
     inkscape:cx="-70.428359"
     inkscape:cy="335.23447"
     inkscape:window-width="1920"
     inkscape:window-height="991"
     inkscape:window-x="-9"
     inkscape:window-y="-9"
     inkscape:window-maximized="1"
     inkscape:current-layer="layer1" />
  <defs
     id="defs1" />
  <g
     inkscape:label="Layer 1"
     inkscape:groupmode="layer"
     id="layer1">
    <rect
       style="fill:#ffffff;fill-opacity:1;stroke:#ffffff;stroke-width:0.499999;stroke-linecap:round;stroke-linejoin:round;stroke-dasharray:none;stroke-opacity:1;paint-order:stroke fill markers"
       id="rect5"
       width="1.2671911"
       height="3.0521238"
       x="-19.363325"
       y="85.965057"
       ry="0" />
    <path
       id="rect1"
       style="fill:#4d4d4d;fill-opacity:1;stroke:#ffffff;stroke-width:0.5;stroke-linecap:round;stroke-linejoin:round;stroke-dasharray:none;stroke-opacity:1;paint-order:stroke fill markers"
       d="m -19.744625,85.283967 c -0.471864,0 -0.851771,0.379834 -0.851771,0.851693 v 2.029836 c 0,0.471857 0.379907,0.851693 0.851771,0.851693 h 0.3813 v -1.18548 h 1.267191 v 1.18548 h 0.381301 c 0.471863,0 0.85177,-0.379836 0.85177,-0.851693 v -0.103374 a 0.91158473,0.91157389 0 0 1 -0.911596,-0.91152 0.91158473,0.91157389 0 0 1 0.911596,-0.911584 v -0.103375 c 0,-0.471858 -0.379907,-0.851693 -0.85177,-0.851693 z m 0.3813,0.681098 h 1.267191 v 1.185479 h -1.267191 z"
       inkscape:export-filename="logo.png"
       inkscape:export-xdpi="1536"
       inkscape:export-ydpi="1536" />
  </g>
</svg>
